<svg width="192" height="192" viewBox="0 0 192 192" fill="none" xmlns="http://www.w3.org/2000/svg">
<rect width="192" height="192" rx="10" fill="#7868E6"/>
<path d="M99.9375 105.492L83.4141 135.938C82.7109 137.25 81.8672 138.352 80.8828 139.242C79.8984 140.086 78.5391 140.508 76.8047 140.508C75.2109 140.508 73.875 140.062 72.7969 139.172C71.7656 138.281 70.8984 137.227 70.1953 136.008L52.7578 106.055C53.0391 112.383 53.2969 118.219 53.5312 123.562C53.625 125.859 53.7188 128.156 53.8125 130.453C53.9062 132.75 54 134.883 54.0938 136.852C54.1875 138.82 54.2578 140.578 54.3047 142.125C54.3984 143.625 54.4688 144.727 54.5156 145.43C54.5625 146.133 54.5391 146.766 54.4453 147.328C54.3984 147.891 54.2344 148.383 53.9531 148.805C53.6719 149.18 53.2734 149.484 52.7578 149.719C52.2422 149.906 51.5391 150 50.6484 150H42.9141C42.0703 150 41.2734 149.742 40.5234 149.227C39.8203 148.664 39.4688 147.586 39.4688 145.992V56.5547C39.4688 55.6641 39.5859 54.7734 39.8203 53.8828C40.1016 52.9922 40.5469 52.1953 41.1562 51.4922C41.8125 50.7422 42.6562 50.1562 43.6875 49.7344C44.7188 49.2656 45.9844 49.0312 47.4844 49.0312H70.125C71.9531 49.0312 73.5234 49.3594 74.8359 50.0156C76.1484 50.625 77.2734 51.6562 78.2109 53.1094L97.125 83.1328L109.781 58.875C110.531 57.4219 111.258 56.1094 111.961 54.9375C112.664 53.7188 113.484 52.6875 114.422 51.8438C115.406 50.9531 116.602 50.2734 118.008 49.8047C119.461 49.2891 121.312 49.0312 123.562 49.0312H142.266C144.047 49.0312 145.57 49.2656 146.836 49.7344C148.148 50.2031 149.203 50.8359 150 51.6328C150.844 52.4297 151.453 53.3672 151.828 54.4453C152.203 55.5234 152.391 56.6953 152.391 57.9609V140.227C152.391 141.68 152.273 143.016 152.039 144.234C151.805 145.406 151.312 146.438 150.562 147.328C149.859 148.172 148.828 148.828 147.469 149.297C146.156 149.766 144.422 150 142.266 150H109.781C107.859 150 106.266 149.789 105 149.367C103.734 148.945 102.727 148.336 101.977 147.539C101.227 146.742 100.688 145.734 100.359 144.516C100.078 143.297 99.9375 141.867 99.9375 140.227V105.492ZM73.0078 56.9062C72.4453 55.9688 71.8125 55.4063 71.1094 55.2188C70.4531 55.0312 69.75 54.9375 69 54.9375H65.4844L90.7969 95.1562L93.6797 89.7422L73.0078 56.9062ZM146.414 59.4375C146.414 58.4062 146.344 57.5859 146.203 56.9766C146.062 56.3672 145.781 55.9219 145.359 55.6406C144.938 55.3125 144.375 55.125 143.672 55.0781C142.969 54.9844 142.055 54.9375 140.93 54.9375V144.094C142.055 144.094 142.969 144.07 143.672 144.023C144.375 143.93 144.938 143.742 145.359 143.461C145.781 143.133 146.062 142.688 146.203 142.125C146.344 141.516 146.414 140.672 146.414 139.594V59.4375Z" fill="#FFFDFD"/>
</svg>
